<svg id="visual" viewBox="0 0 900 600" width="900" height="600" xmlns="http://www.w3.org/2000/svg" xmlns:xlink="http://www.w3.org/1999/xlink" version="1.1"><rect x="0" y="0" width="900" height="600" fill="#002233"></rect><path d="M0 445L21.5 456.5C43 468 86 491 128.8 501C171.7 511 214.3 508 257.2 507C300 506 343 507 385.8 509C428.7 511 471.3 514 514.2 498.5C557 483 600 449 642.8 443.7C685.7 438.3 728.3 461.7 771.2 462.8C814 464 857 443 878.5 432.5L900 422L900 601L878.5 601C857 601 814 601 771.2 601C728.3 601 685.7 601 642.8 601C600 601 557 601 514.2 601C471.3 601 428.7 601 385.8 601C343 601 300 601 257.2 601C214.3 601 171.7 601 128.8 601C86 601 43 601 21.5 601L0 601Z" fill="#CCCCCC" stroke-linecap="round" stroke-linejoin="miter"></path></svg>