<svg id="visual" viewBox="0 0 900 600" width="900" height="600" xmlns="http://www.w3.org/2000/svg" xmlns:xlink="http://www.w3.org/1999/xlink" version="1.1"><rect x="0" y="0" width="900" height="600" fill="#001220"></rect><defs><linearGradient id="grad1_0" x1="33.3%" y1="100%" x2="100%" y2="0%"><stop offset="20%" stop-color="#001220" stop-opacity="1"></stop><stop offset="80%" stop-color="#001220" stop-opacity="1"></stop></linearGradient></defs><defs><linearGradient id="grad2_0" x1="0%" y1="100%" x2="66.7%" y2="0%"><stop offset="20%" stop-color="#001220" stop-opacity="1"></stop><stop offset="80%" stop-color="#001220" stop-opacity="1"></stop></linearGradient></defs><g transform="translate(900, 600)"><path d="M-486.7 0C-478.6 -38.1 -470.5 -76.2 -438.7 -100.1C-407 -124.1 -351.6 -133.9 -329.8 -158.8C-307.9 -183.7 -319.7 -223.7 -307.3 -245C-294.8 -266.4 -258.1 -269.1 -241.9 -303.4C-225.7 -337.6 -230 -403.5 -210.4 -437C-190.8 -470.5 -147.4 -471.6 -108.3 -474.5C-69.3 -477.5 -34.6 -482.1 0 -486.7L0 0Z" fill="#CCCCCC"></path></g><g transform="translate(0, 0)"><path d="M486.7 0C492.2 39.4 497.6 78.8 474.5 108.3C451.5 137.8 400.1 157.3 370.3 178.3C340.5 199.4 332.2 221.9 328.4 261.9C324.5 301.9 325 359.3 293.7 368.2C262.4 377.2 199.3 337.7 162.7 337.9C126.2 338.1 116.2 378 93.5 409.5C70.8 440.9 35.4 463.8 0 486.7L0 0Z" fill="#CCCCCC"></path></g></svg>