<svg id="visual" viewBox="0 0 900 600" width="900" height="600" xmlns="http://www.w3.org/2000/svg" xmlns:xlink="http://www.w3.org/1999/xlink" version="1.1"><rect x="0" y="0" width="900" height="600" fill="#3776ab"></rect><path d="M0 182L21.5 205.8C43 229.7 86 277.3 128.8 308.2C171.7 339 214.3 353 257.2 356C300 359 343 351 385.8 325.7C428.7 300.3 471.3 257.7 514.2 273.7C557 289.7 600 364.3 642.8 401.3C685.7 438.3 728.3 437.7 771.2 394.8C814 352 857 267 878.5 224.5L900 182L900 601L878.5 601C857 601 814 601 771.2 601C728.3 601 685.7 601 642.8 601C600 601 557 601 514.2 601C471.3 601 428.7 601 385.8 601C343 601 300 601 257.2 601C214.3 601 171.7 601 128.8 601C86 601 43 601 21.5 601L0 601Z" fill="#ffd343" stroke-linecap="round" stroke-linejoin="miter"></path></svg>